<svg data-v-423bf9ae="" xmlns="http://www.w3.org/2000/svg" viewBox="0 0 415.250895881003 180" class="iconAbove"><!----><!----><!----><g data-v-423bf9ae="" id="661abdcb-a4ce-449c-a9b1-5b1d3b8ca68b" fill="white" transform="matrix(4.240282799826114,0,0,4.240282799826114,-4.621906318778628,93.22652969049678)"><path d="M7.76 17.09L2.32 9.21L2.32 17.09L1.09 17.09Q1.17 16.68 1.18 15.90Q1.20 15.13 1.20 14.12L1.20 14.12L1.20 10.08Q1.20 9.07 1.18 8.30Q1.17 7.52 1.09 7.11L1.09 7.11L2.32 7.11L7.76 15.02L7.76 7.11L8.99 7.11Q8.96 7.31 8.93 7.62Q8.91 7.92 8.90 8.30Q8.89 8.67 8.89 9.13Q8.89 9.58 8.89 10.08L8.89 10.08L8.89 17.09L7.76 17.09ZM17.01 13.77L12.17 13.77Q12.19 14.38 12.36 14.82Q12.52 15.26 12.81 15.56Q13.10 15.85 13.50 15.99Q13.89 16.13 14.36 16.13L14.36 16.13Q15.02 16.13 15.65 15.98Q16.29 15.83 16.92 15.45L16.92 15.45L17.06 16.58Q16.69 16.76 16.34 16.89Q16.00 17.02 15.65 17.10Q15.30 17.19 14.94 17.22Q14.58 17.26 14.18 17.26L14.18 17.26Q13.53 17.26 12.93 17.03Q12.34 16.80 11.89 16.35Q11.44 15.91 11.17 15.24Q10.90 14.58 10.90 13.71L10.90 13.71Q10.90 12.86 11.13 12.17Q11.36 11.48 11.79 11.00Q12.21 10.51 12.82 10.24Q13.43 9.98 14.18 9.98L14.18 9.98Q14.75 9.98 15.18 10.11Q15.61 10.25 15.92 10.48Q16.24 10.72 16.45 11.03Q16.66 11.35 16.79 11.71Q16.91 12.07 16.97 12.47Q17.02 12.86 17.02 13.24L17.02 13.24L17.02 13.51Q17.02 13.68 17.01 13.77L17.01 13.77ZM14.08 11.01L14.08 11.01Q13.33 11.01 12.85 11.45Q12.37 11.89 12.22 12.82L12.22 12.82L15.79 12.82Q15.79 12.38 15.66 12.04Q15.54 11.70 15.31 11.47Q15.08 11.24 14.77 11.12Q14.45 11.01 14.08 11.01ZM17.94 11.28L17.94 10.29L19.31 10.29L19.31 8.07L20.58 8.07L20.58 10.29L22.80 10.29L22.80 11.28L20.58 11.28L20.58 14.42Q20.58 14.95 20.63 15.29Q20.68 15.62 20.78 15.81Q20.89 16.00 21.05 16.06Q21.22 16.13 21.45 16.13L21.45 16.13Q21.75 16.13 22.11 16.00Q22.48 15.87 22.93 15.62L22.93 15.62L22.93 16.71Q22.46 17.02 22.03 17.14Q21.60 17.26 21.24 17.26L21.24 17.26Q20.84 17.26 20.49 17.17Q20.14 17.08 19.88 16.84Q19.61 16.61 19.46 16.23Q19.31 15.84 19.31 15.24L19.31 15.24L19.31 11.28L17.94 11.28ZM29.22 14.36L29.22 11.66Q28.97 11.52 28.75 11.42Q28.53 11.33 28.32 11.27Q28.11 11.20 27.89 11.17Q27.67 11.14 27.41 11.14L27.41 11.14Q27.02 11.14 26.67 11.32Q26.31 11.50 26.03 11.83Q25.76 12.17 25.59 12.65Q25.43 13.13 25.43 13.74L25.43 13.74Q25.43 14.94 25.84 15.55Q26.24 16.17 27.14 16.17L27.14 16.17Q27.45 16.17 27.76 16.01Q28.08 15.85 28.35 15.60Q28.63 15.35 28.85 15.02Q29.08 14.70 29.22 14.36L29.22 14.36ZM30.49 6.15L30.49 13.47Q30.49 14.76 30.64 15.64Q30.78 16.52 31.00 17.09L31.00 17.09L29.77 17.09Q29.70 16.91 29.59 16.56Q29.48 16.21 29.39 15.83L29.39 15.83Q28.90 16.52 28.28 16.89Q27.66 17.26 26.90 17.26L26.90 17.26Q26.27 17.26 25.77 17.02Q25.27 16.79 24.91 16.35Q24.55 15.92 24.36 15.31Q24.17 14.70 24.17 13.95L24.17 13.95Q24.17 13.04 24.41 12.30Q24.66 11.57 25.10 11.06Q25.54 10.54 26.13 10.26Q26.72 9.98 27.41 9.98L27.41 9.98Q27.63 9.98 27.87 10.03Q28.10 10.08 28.34 10.16Q28.57 10.24 28.80 10.35Q29.03 10.45 29.22 10.56L29.22 10.56L29.22 8.65Q29.22 7.82 29.19 7.20Q29.15 6.58 29.05 6.15L29.05 6.15L30.49 6.15ZM32.64 7.90L32.64 7.90Q32.64 7.70 32.70 7.54Q32.76 7.37 32.88 7.24Q32.99 7.12 33.15 7.04Q33.30 6.97 33.50 6.97L33.50 6.97Q33.69 6.97 33.85 7.04Q34.02 7.12 34.13 7.24Q34.25 7.37 34.32 7.54Q34.38 7.70 34.38 7.90L34.38 7.90Q34.38 8.09 34.32 8.25Q34.25 8.42 34.13 8.55Q34.02 8.67 33.85 8.75Q33.69 8.82 33.50 8.82L33.50 8.82Q33.30 8.82 33.15 8.75Q32.99 8.67 32.88 8.55Q32.76 8.42 32.70 8.25Q32.64 8.09 32.64 7.90ZM34.15 10.12L34.15 13.84Q34.15 14.17 34.16 14.62Q34.17 15.07 34.18 15.52Q34.20 15.98 34.22 16.40Q34.25 16.82 34.28 17.09L34.28 17.09L32.88 17.09L32.88 13.47Q32.88 12.97 32.88 12.48Q32.87 12.00 32.86 11.56Q32.85 11.13 32.83 10.76Q32.81 10.38 32.78 10.12L32.78 10.12L34.15 10.12ZM40.95 14.39L40.95 11.42Q40.78 11.35 40.60 11.30Q40.41 11.25 40.22 11.22Q40.03 11.18 39.85 11.16Q39.67 11.14 39.51 11.14L39.51 11.14Q38.95 11.14 38.55 11.37Q38.16 11.60 37.91 11.97Q37.66 12.35 37.54 12.82Q37.43 13.29 37.43 13.77L37.43 13.77Q37.43 14.41 37.53 14.83Q37.63 15.25 37.80 15.50Q37.97 15.75 38.21 15.86Q38.45 15.96 38.73 15.96L38.73 15.96Q38.99 15.96 39.28 15.86Q39.57 15.75 39.87 15.55Q40.17 15.35 40.44 15.06Q40.72 14.77 40.95 14.39L40.95 14.39ZM42.21 10.49L42.21 16.92Q42.21 17.82 41.95 18.46Q41.69 19.11 41.26 19.51Q40.83 19.92 40.28 20.11Q39.74 20.30 39.17 20.30L39.17 20.30Q38.51 20.30 37.87 20.08Q37.22 19.85 36.67 19.48L36.67 19.48L37.12 18.42Q37.60 18.77 38.10 18.99Q38.59 19.21 39.10 19.21L39.10 19.21Q39.37 19.21 39.69 19.11Q40.01 19.02 40.29 18.78Q40.57 18.55 40.76 18.15Q40.95 17.75 40.95 17.16L40.95 17.16L40.95 15.76Q40.68 16.09 40.38 16.35Q40.09 16.60 39.78 16.78Q39.48 16.95 39.17 17.04Q38.87 17.12 38.59 17.12L38.59 17.12Q38.12 17.12 37.68 16.96Q37.24 16.80 36.90 16.44Q36.57 16.08 36.36 15.50Q36.16 14.93 36.16 14.12L36.16 14.12Q36.16 13.33 36.37 12.58Q36.57 11.84 37.00 11.26Q37.43 10.68 38.11 10.33Q38.78 9.98 39.72 9.98L39.72 9.98Q40.02 9.98 40.35 10.02Q40.67 10.07 41.00 10.14Q41.32 10.22 41.62 10.31Q41.93 10.40 42.21 10.49L42.21 10.49ZM44.19 7.90L44.19 7.90Q44.19 7.70 44.26 7.54Q44.32 7.37 44.43 7.24Q44.54 7.12 44.70 7.04Q44.86 6.97 45.05 6.97L45.05 6.97Q45.24 6.97 45.40 7.04Q45.57 7.12 45.68 7.24Q45.80 7.37 45.87 7.54Q45.94 7.70 45.94 7.90L45.94 7.90Q45.94 8.09 45.87 8.25Q45.80 8.42 45.68 8.55Q45.57 8.67 45.40 8.75Q45.24 8.82 45.05 8.82L45.05 8.82Q44.86 8.82 44.70 8.75Q44.54 8.67 44.43 8.55Q44.32 8.42 44.26 8.25Q44.19 8.09 44.19 7.90ZM45.70 10.12L45.70 13.84Q45.70 14.17 45.71 14.62Q45.72 15.07 45.74 15.52Q45.75 15.98 45.78 16.40Q45.80 16.82 45.83 17.09L45.83 17.09L44.43 17.09L44.43 13.47Q44.43 12.97 44.43 12.48Q44.43 12.00 44.42 11.56Q44.41 11.13 44.39 10.76Q44.37 10.38 44.33 10.12L44.33 10.12L45.70 10.12ZM47.20 11.28L47.20 10.29L48.57 10.29L48.57 8.07L49.83 8.07L49.83 10.29L52.06 10.29L52.06 11.28L49.83 11.28L49.83 14.42Q49.83 14.95 49.89 15.29Q49.94 15.62 50.04 15.81Q50.15 16.00 50.31 16.06Q50.48 16.13 50.71 16.13L50.71 16.13Q51.00 16.13 51.37 16.00Q51.74 15.87 52.19 15.62L52.19 15.62L52.19 16.71Q51.72 17.02 51.29 17.14Q50.86 17.26 50.50 17.26L50.50 17.26Q50.09 17.26 49.75 17.17Q49.40 17.08 49.13 16.84Q48.87 16.61 48.72 16.23Q48.57 15.84 48.57 15.24L48.57 15.24L48.57 11.28L47.20 11.28ZM58.21 12.07L58.21 11.20Q58.13 11.18 58.02 11.16Q57.92 11.14 57.78 11.12Q57.64 11.09 57.45 11.08Q57.26 11.07 57.01 11.07L57.01 11.07Q56.34 11.07 55.89 11.34Q55.45 11.61 55.18 12.06Q54.91 12.51 54.80 13.09Q54.69 13.67 54.69 14.29L54.69 14.29Q54.69 14.68 54.77 15.02Q54.84 15.35 54.98 15.59Q55.12 15.83 55.30 15.97Q55.47 16.10 55.68 16.10L55.68 16.10Q55.98 16.10 56.28 15.87Q56.59 15.63 56.87 15.27Q57.15 14.90 57.39 14.45Q57.64 13.99 57.82 13.55Q58.00 13.10 58.11 12.70Q58.21 12.30 58.21 12.07L58.21 12.07ZM59.92 17.09L58.72 17.09Q58.65 16.93 58.59 16.64Q58.53 16.35 58.49 16.03Q58.45 15.70 58.43 15.38Q58.41 15.06 58.41 14.83L58.41 14.83L58.41 14.29Q58.21 14.82 57.92 15.35Q57.64 15.88 57.27 16.30Q56.91 16.73 56.46 16.99Q56.01 17.26 55.47 17.26L55.47 17.26Q55.04 17.26 54.67 17.07Q54.29 16.88 54.01 16.50Q53.74 16.13 53.58 15.57Q53.42 15.01 53.42 14.29L53.42 14.29Q53.42 13.47 53.64 12.70Q53.86 11.92 54.31 11.32Q54.76 10.71 55.46 10.35Q56.16 9.98 57.11 9.98L57.11 9.98Q57.78 9.98 58.37 10.07Q58.95 10.15 59.47 10.29L59.47 10.29L59.47 13.47Q59.47 14.76 59.60 15.64Q59.72 16.52 59.92 17.09L59.92 17.09ZM63.13 6.15L63.13 13.84Q63.13 14.17 63.14 14.62Q63.15 15.06 63.17 15.52Q63.18 15.98 63.21 16.39Q63.23 16.81 63.27 17.09L63.27 17.09L61.87 17.09L61.87 9.37Q61.87 8.37 61.83 7.56Q61.80 6.75 61.73 6.15L61.73 6.15L63.13 6.15ZM64.63 11.28L64.63 10.29L66.00 10.29L66.00 8.07L67.27 8.07L67.27 10.29L69.49 10.29L69.49 11.28L67.27 11.28L67.27 14.42Q67.27 14.95 67.32 15.29Q67.37 15.62 67.47 15.81Q67.58 16.00 67.74 16.06Q67.91 16.13 68.14 16.13L68.14 16.13Q68.43 16.13 68.80 16.00Q69.17 15.87 69.62 15.62L69.62 15.62L69.62 16.71Q69.15 17.02 68.72 17.14Q68.29 17.26 67.93 17.26L67.93 17.26Q67.53 17.26 67.18 17.17Q66.83 17.08 66.56 16.84Q66.30 16.61 66.15 16.23Q66.00 15.84 66.00 15.24L66.00 15.24L66.00 11.28L64.63 11.28ZM72.46 17.09L71.20 17.09L71.20 12.89Q71.20 11.87 71.08 11.17Q70.97 10.47 70.85 10.12L70.85 10.12L72.08 10.12Q72.13 10.23 72.17 10.40Q72.21 10.58 72.24 10.77Q72.28 10.96 72.30 11.14L72.30 11.14L72.36 11.45Q72.60 11.09 72.90 10.82Q73.19 10.55 73.48 10.36Q73.78 10.17 74.06 10.08Q74.35 9.98 74.58 9.98L74.58 9.98Q75.01 9.98 75.31 10.17Q75.61 10.36 75.79 10.67Q75.98 10.99 76.07 11.41Q76.15 11.82 76.15 12.27L76.15 12.27L75.06 12.51Q75.06 12.26 75.01 12.02Q74.96 11.79 74.87 11.60Q74.77 11.42 74.62 11.32Q74.48 11.21 74.27 11.21L74.27 11.21Q74.05 11.21 73.79 11.38Q73.52 11.55 73.26 11.82Q73.01 12.09 72.79 12.43Q72.57 12.78 72.46 13.13L72.46 13.13L72.46 17.09ZM81.72 12.07L81.72 11.20Q81.64 11.18 81.54 11.16Q81.44 11.14 81.30 11.12Q81.16 11.09 80.97 11.08Q80.78 11.07 80.53 11.07L80.53 11.07Q79.86 11.07 79.41 11.34Q78.96 11.61 78.70 12.06Q78.43 12.51 78.32 13.09Q78.20 13.67 78.20 14.29L78.20 14.29Q78.20 14.68 78.28 15.02Q78.36 15.35 78.50 15.59Q78.63 15.83 78.81 15.97Q78.99 16.10 79.19 16.10L79.19 16.10Q79.50 16.10 79.80 15.87Q80.10 15.63 80.38 15.27Q80.66 14.90 80.91 14.45Q81.16 13.99 81.34 13.55Q81.52 13.10 81.62 12.70Q81.72 12.30 81.72 12.07L81.72 12.07ZM83.43 17.09L82.24 17.09Q82.16 16.93 82.10 16.64Q82.04 16.35 82.01 16.03Q81.97 15.70 81.95 15.38Q81.93 15.06 81.93 14.83L81.93 14.83L81.93 14.29Q81.72 14.82 81.44 15.35Q81.16 15.88 80.79 16.30Q80.42 16.73 79.97 16.99Q79.52 17.26 78.99 17.26L78.99 17.26Q78.56 17.26 78.18 17.07Q77.81 16.88 77.53 16.50Q77.25 16.13 77.10 15.57Q76.94 15.01 76.94 14.29L76.94 14.29Q76.94 13.47 77.16 12.70Q77.38 11.92 77.83 11.32Q78.28 10.71 78.98 10.35Q79.67 9.98 80.63 9.98L80.63 9.98Q81.29 9.98 81.88 10.07Q82.47 10.15 82.99 10.29L82.99 10.29L82.99 13.47Q82.99 14.76 83.11 15.64Q83.23 16.52 83.43 17.09L83.43 17.09ZM89.86 14.36L89.86 11.66Q89.61 11.52 89.39 11.42Q89.17 11.33 88.96 11.27Q88.74 11.20 88.53 11.17Q88.31 11.14 88.05 11.14L88.05 11.14Q87.66 11.14 87.30 11.32Q86.95 11.50 86.67 11.83Q86.39 12.17 86.23 12.65Q86.06 13.13 86.06 13.74L86.06 13.74Q86.06 14.94 86.47 15.55Q86.88 16.17 87.77 16.17L87.77 16.17Q88.09 16.17 88.40 16.01Q88.71 15.85 88.99 15.60Q89.26 15.35 89.49 15.02Q89.71 14.70 89.86 14.36L89.86 14.36ZM91.12 6.15L91.12 13.47Q91.12 14.76 91.27 15.64Q91.42 16.52 91.64 17.09L91.64 17.09L90.41 17.09Q90.33 16.91 90.22 16.56Q90.12 16.21 90.03 15.83L90.03 15.83Q89.54 16.52 88.92 16.89Q88.29 17.26 87.53 17.26L87.53 17.26Q86.91 17.26 86.40 17.02Q85.90 16.79 85.54 16.35Q85.18 15.92 84.99 15.31Q84.80 14.70 84.80 13.95L84.80 13.95Q84.80 13.04 85.05 12.30Q85.30 11.57 85.74 11.06Q86.17 10.54 86.77 10.26Q87.36 9.98 88.05 9.98L88.05 9.98Q88.27 9.98 88.50 10.03Q88.74 10.08 88.97 10.16Q89.21 10.24 89.43 10.35Q89.66 10.45 89.86 10.56L89.86 10.56L89.86 8.65Q89.86 7.82 89.82 7.20Q89.78 6.58 89.69 6.15L89.69 6.15L91.12 6.15ZM98.98 13.77L94.13 13.77Q94.15 14.38 94.32 14.82Q94.49 15.26 94.78 15.56Q95.07 15.85 95.46 15.99Q95.85 16.13 96.32 16.13L96.32 16.13Q96.98 16.13 97.62 15.98Q98.25 15.83 98.88 15.45L98.88 15.45L99.02 16.58Q98.66 16.76 98.31 16.89Q97.96 17.02 97.61 17.10Q97.26 17.19 96.90 17.22Q96.54 17.26 96.15 17.26L96.15 17.26Q95.49 17.26 94.90 17.03Q94.30 16.80 93.85 16.35Q93.40 15.91 93.13 15.24Q92.87 14.58 92.87 13.71L92.87 13.71Q92.87 12.86 93.10 12.17Q93.32 11.48 93.75 11.00Q94.17 10.51 94.78 10.24Q95.39 9.98 96.15 9.98L96.15 9.98Q96.71 9.98 97.14 10.11Q97.57 10.25 97.88 10.48Q98.20 10.72 98.41 11.03Q98.62 11.35 98.75 11.71Q98.88 12.07 98.93 12.47Q98.98 12.86 98.98 13.24L98.98 13.24L98.98 13.51Q98.98 13.68 98.98 13.77L98.98 13.77ZM96.04 11.01L96.04 11.01Q95.29 11.01 94.81 11.45Q94.34 11.89 94.19 12.82L94.19 12.82L97.75 12.82Q97.75 12.38 97.63 12.04Q97.50 11.70 97.27 11.47Q97.04 11.24 96.73 11.12Q96.41 11.01 96.04 11.01Z"></path></g><!----><g data-v-423bf9ae="" id="d2388d73-78a0-4765-b8a6-316a960dce69" transform="matrix(1.0868111504448785,0,0,1.0868111504448785,152.74473429518693,-0.23894260335429607)" stroke="none" fill="white"><g clip-rule="evenodd"><path d="M12.983 10.59l17.018 88.223-5.872-59.049 29.021-1.892-.054-9.883L64.549 1 53.622 18.977z"></path><path d="M59.389 54.548l5.16-53.541-8.74 39.716-19.612 1.045 1.57 20.462-7.766 36.583 12.057-39.899z"></path><path d="M62.8 67.182l.549-10.453-15.979 3.755-.032 11.797-17.337 26.532 21.68-27.616zM65.711 62.394l14.841-4.731 1.509-12.532-15.899 2.095zM72.07 44.502l10.988-1.417 1.581-10.278-8.079-.373L64.549 1l8.43 30.967z"></path><path d="M87.413 31.294l1.256-9.506-9.544-2.694L64.549 1l14.483 22.437-.422 7z"></path></g></g><!----></svg>